<svg xmlns="http://www.w3.org/2000/svg" width="1600" height="900" viewBox="0 0 1600 900">
  <g fill="none" stroke="#efb5b5" stroke-width="7" stroke-linecap="round" stroke-linejoin="round" opacity="0.9">
    <path d="M115 130c-24-34-73-34-94 0-22 36 16 77 94 137 79-60 116-101 95-137-22-34-71-34-95 0z"/>
    <path d="M515 120c-23-31-67-31-88 0-21 34 15 71 88 126 74-55 110-92 89-126-21-31-65-31-89 0z"/>
    <path d="M907 132c-22-31-64-31-85 0-20 33 14 69 85 122 71-53 104-89 85-122-21-31-63-31-85 0z"/>
    <path d="M1290 130c-22-31-65-31-85 0-20 33 13 69 85 123 72-54 106-90 85-123-20-31-63-31-85 0z"/>
  </g>
  <g fill="#efb5b5" opacity="0.85">
    <path d="M315 320c-21-29-61-29-81 0-19 32 13 66 81 116 69-50 100-84 81-116-20-29-60-29-81 0z"/>
    <path d="M790 325c-21-30-61-30-81 0-19 32 13 68 81 117 69-49 100-85 81-117-20-30-60-30-81 0z"/>
    <path d="M1225 330c-20-29-59-29-78 0-18 30 13 64 78 111 66-47 97-81 79-111-20-29-59-29-79 0z"/>
  </g>
  <g fill="none" stroke="#efb5b5" stroke-width="7" stroke-linecap="round" stroke-linejoin="round" opacity="0.9">
    <path d="M530 325c-19-30-56-30-74 0-18 30 12 62 74 109 63-47 92-79 74-109-18-30-55-30-74 0z"/>
    <path d="M1025 326c-20-31-57-31-75 0-19 31 12 64 75 112 64-48 94-81 75-112-18-31-55-31-75 0z"/>
  </g>
  <g fill="none" stroke="#efb5b5" stroke-width="7" stroke-linecap="round" stroke-linejoin="round" opacity="0.9">
    <path d="M120 585c-24-34-73-34-94 0-22 36 16 77 94 137 79-60 116-101 95-137-22-34-71-34-95 0z"/>
    <path d="M700 582c-22-31-64-31-85 0-20 33 14 69 85 122 71-53 104-89 85-122-21-31-63-31-85 0z"/>
    <path d="M1290 585c-22-31-65-31-85 0-20 33 13 69 85 123 72-54 106-90 85-123-20-31-63-31-85 0z"/>
  </g>
  <g fill="#efb5b5" opacity="0.85">
    <path d="M510 582c-21-31-60-31-80 0-20 31 14 67 80 117 67-50 101-86 81-117-20-31-59-31-81 0z"/>
    <path d="M1040 584c-20-30-58-30-77 0-19 30 13 65 77 112 66-47 97-82 78-112-19-30-57-30-78 0z"/>
  </g>
</svg>
